999
DXF from OpenSCAD
  0
SECTION
  2
HEADER
  9
$ACADVER
  1
AC1006
  9
$INSBASE
 10
0.0
 20
0.0
 30
0.0
  9
$EXTMIN
 10
-79.8
 20
-52.3
  9
$EXTMAX
 10
79.8
 20
52.3
  9
$LINMIN
 10
-79.8
 20
-52.3
  9
$LINMAX
 10
79.8
 20
52.3
  0
ENDSEC
  0
SECTION
  2
TABLES
  0
TABLE
  2
LTYPE
 70
1
  0
LTYPE
  2
CONTINUOUS
 70
64
  3
Solid line
 72
65
 73
0
 40
0.000000
  0
ENDTAB
  0
TABLE
  2
LAYER
 70
6
  0
LAYER
  2
0
 70
64
 62
7
  6
CONTINUOUS
  0
ENDTAB
  0
TABLE
  2
STYLE
 70
0
  0
ENDTAB
  0
ENDSEC
  0
SECTION
  2
BLOCKS
  0
ENDSEC
  0
SECTION
  2
ENTITIES
  0
LWPOLYLINE
100
AcDbEntity
  8
0
100
AcDbPolyline
 90
64
 70
1
 10
-79.8
 20
-45.5
 10
-79.7627
 20
-46.2108
 10
-79.6514
 20
-46.9138
 10
-79.4672
 20
-47.6013
 10
-79.2121
 20
-48.2658
 10
-78.889
 20
-48.9
 10
-78.5013
 20
-49.4969
 10
-78.0534
 20
-50.0501
 10
-77.5501
 20
-50.5534
 10
-76.9969
 20
-51.0013
 10
-76.4
 20
-51.389
 10
-75.7658
 20
-51.7121
 10
-75.1013
 20
-51.9672
 10
-74.4138
 20
-52.1514
 10
-73.7108
 20
-52.2627
 10
-73
 20
-52.3
 10
73
 20
-52.3
 10
73.7108
 20
-52.2627
 10
74.4138
 20
-52.1514
 10
75.1013
 20
-51.9672
 10
75.7658
 20
-51.7121
 10
76.4
 20
-51.389
 10
76.9969
 20
-51.0013
 10
77.5501
 20
-50.5534
 10
78.0534
 20
-50.0501
 10
78.5013
 20
-49.4969
 10
78.889
 20
-48.9
 10
79.2121
 20
-48.2658
 10
79.4672
 20
-47.6013
 10
79.6514
 20
-46.9138
 10
79.7627
 20
-46.2108
 10
79.8
 20
-45.5
 10
79.8
 20
45.5
 10
79.7627
 20
46.2108
 10
79.6514
 20
46.9138
 10
79.4672
 20
47.6013
 10
79.2121
 20
48.2658
 10
78.889
 20
48.9
 10
78.5013
 20
49.4969
 10
78.0534
 20
50.0501
 10
77.5501
 20
50.5534
 10
76.9969
 20
51.0013
 10
76.4
 20
51.389
 10
75.7658
 20
51.7121
 10
75.1013
 20
51.9672
 10
74.4138
 20
52.1514
 10
73.7108
 20
52.2627
 10
73
 20
52.3
 10
-73
 20
52.3
 10
-73.7108
 20
52.2627
 10
-74.4138
 20
52.1514
 10
-75.1013
 20
51.9672
 10
-75.7658
 20
51.7121
 10
-76.4
 20
51.389
 10
-76.9969
 20
51.0013
 10
-77.5501
 20
50.5534
 10
-78.0534
 20
50.0501
 10
-78.5013
 20
49.4969
 10
-78.889
 20
48.9
 10
-79.2121
 20
48.2658
 10
-79.4672
 20
47.6013
 10
-79.6514
 20
46.9138
 10
-79.7627
 20
46.2108
 10
-79.8
 20
45.5
  0
LWPOLYLINE
100
AcDbEntity
  8
0
100
AcDbPolyline
 90
60
 70
1
 10
-74.6
 20
-45.5
 10
-74.5912
 20
-45.3328
 10
-74.565
 20
-45.1673
 10
-74.5217
 20
-45.0056
 10
-74.4617
 20
-44.8492
 10
-74.3856
 20
-44.7
 10
-74.2944
 20
-44.5595
 10
-74.189
 20
-44.4294
 10
-74.0706
 20
-44.311
 10
-73.9405
 20
-44.2056
 10
-73.8
 20
-44.1144
 10
-73.6508
 20
-44.0383
 10
-73.4944
 20
-43.9783
 10
-73.3327
 20
-43.935
 10
-73.1672
 20
-43.9088
 10
-73
 20
-43.9
 10
-72.8328
 20
-43.9088
 10
-72.6673
 20
-43.935
 10
-72.5056
 20
-43.9783
 10
-72.3492
 20
-44.0383
 10
-72.2
 20
-44.1144
 10
-72.0595
 20
-44.2056
 10
-71.9294
 20
-44.311
 10
-71.811
 20
-44.4294
 10
-71.7056
 20
-44.5595
 10
-71.6144
 20
-44.7
 10
-71.5383
 20
-44.8492
 10
-71.4783
 20
-45.0056
 10
-71.435
 20
-45.1673
 10
-71.4088
 20
-45.3328
 10
-71.4
 20
-45.5
 10
-71.4088
 20
-45.6672
 10
-71.435
 20
-45.8327
 10
-71.4783
 20
-45.9944
 10
-71.5383
 20
-46.1508
 10
-71.6144
 20
-46.3
 10
-71.7056
 20
-46.4405
 10
-71.811
 20
-46.5706
 10
-71.9294
 20
-46.689
 10
-72.0595
 20
-46.7944
 10
-72.2
 20
-46.8856
 10
-72.3492
 20
-46.9617
 10
-72.5056
 20
-47.0217
 10
-72.6673
 20
-47.065
 10
-72.8328
 20
-47.0912
 10
-73
 20
-47.1
 10
-73.1672
 20
-47.0912
 10
-73.3327
 20
-47.065
 10
-73.4944
 20
-47.0217
 10
-73.6508
 20
-46.9617
 10
-73.8
 20
-46.8856
 10
-73.9405
 20
-46.7944
 10
-74.0706
 20
-46.689
 10
-74.189
 20
-46.5706
 10
-74.2944
 20
-46.4405
 10
-74.3856
 20
-46.3
 10
-74.4617
 20
-46.1508
 10
-74.5217
 20
-45.9944
 10
-74.565
 20
-45.8327
 10
-74.5912
 20
-45.6672
  0
LWPOLYLINE
100
AcDbEntity
  8
0
100
AcDbPolyline
 90
60
 70
1
 10
-74.6
 20
45.5
 10
-74.5912
 20
45.6672
 10
-74.565
 20
45.8327
 10
-74.5217
 20
45.9944
 10
-74.4617
 20
46.1508
 10
-74.3856
 20
46.3
 10
-74.2944
 20
46.4405
 10
-74.189
 20
46.5706
 10
-74.0706
 20
46.689
 10
-73.9405
 20
46.7944
 10
-73.8
 20
46.8856
 10
-73.6508
 20
46.9617
 10
-73.4944
 20
47.0217
 10
-73.3327
 20
47.065
 10
-73.1672
 20
47.0912
 10
-73
 20
47.1
 10
-72.8328
 20
47.0912
 10
-72.6673
 20
47.065
 10
-72.5056
 20
47.0217
 10
-72.3492
 20
46.9617
 10
-72.2
 20
46.8856
 10
-72.0595
 20
46.7944
 10
-71.9294
 20
46.689
 10
-71.811
 20
46.5706
 10
-71.7056
 20
46.4405
 10
-71.6144
 20
46.3
 10
-71.5383
 20
46.1508
 10
-71.4783
 20
45.9944
 10
-71.435
 20
45.8327
 10
-71.4088
 20
45.6672
 10
-71.4
 20
45.5
 10
-71.4088
 20
45.3328
 10
-71.435
 20
45.1673
 10
-71.4783
 20
45.0056
 10
-71.5383
 20
44.8492
 10
-71.6144
 20
44.7
 10
-71.7056
 20
44.5595
 10
-71.811
 20
44.4294
 10
-71.9294
 20
44.311
 10
-72.0595
 20
44.2056
 10
-72.2
 20
44.1144
 10
-72.3492
 20
44.0383
 10
-72.5056
 20
43.9783
 10
-72.6673
 20
43.935
 10
-72.8328
 20
43.9088
 10
-73
 20
43.9
 10
-73.1672
 20
43.9088
 10
-73.3327
 20
43.935
 10
-73.4944
 20
43.9783
 10
-73.6508
 20
44.0383
 10
-73.8
 20
44.1144
 10
-73.9405
 20
44.2056
 10
-74.0706
 20
44.311
 10
-74.189
 20
44.4294
 10
-74.2944
 20
44.5595
 10
-74.3856
 20
44.7
 10
-74.4617
 20
44.8492
 10
-74.5217
 20
45.0056
 10
-74.565
 20
45.1673
 10
-74.5912
 20
45.3328
  0
LWPOLYLINE
100
AcDbEntity
  8
0
100
AcDbPolyline
 90
60
 70
1
 10
71.4
 20
-45.5
 10
71.4088
 20
-45.3328
 10
71.435
 20
-45.1673
 10
71.4783
 20
-45.0056
 10
71.5383
 20
-44.8492
 10
71.6144
 20
-44.7
 10
71.7056
 20
-44.5595
 10
71.811
 20
-44.4294
 10
71.9294
 20
-44.311
 10
72.0595
 20
-44.2056
 10
72.2
 20
-44.1144
 10
72.3492
 20
-44.0383
 10
72.5056
 20
-43.9783
 10
72.6673
 20
-43.935
 10
72.8328
 20
-43.9088
 10
73
 20
-43.9
 10
73.1672
 20
-43.9088
 10
73.3327
 20
-43.935
 10
73.4944
 20
-43.9783
 10
73.6508
 20
-44.0383
 10
73.8
 20
-44.1144
 10
73.9405
 20
-44.2056
 10
74.0706
 20
-44.311
 10
74.189
 20
-44.4294
 10
74.2944
 20
-44.5595
 10
74.3856
 20
-44.7
 10
74.4617
 20
-44.8492
 10
74.5217
 20
-45.0056
 10
74.565
 20
-45.1673
 10
74.5912
 20
-45.3328
 10
74.6
 20
-45.5
 10
74.5912
 20
-45.6672
 10
74.565
 20
-45.8327
 10
74.5217
 20
-45.9944
 10
74.4617
 20
-46.1508
 10
74.3856
 20
-46.3
 10
74.2944
 20
-46.4405
 10
74.189
 20
-46.5706
 10
74.0706
 20
-46.689
 10
73.9405
 20
-46.7944
 10
73.8
 20
-46.8856
 10
73.6508
 20
-46.9617
 10
73.4944
 20
-47.0217
 10
73.3327
 20
-47.065
 10
73.1672
 20
-47.0912
 10
73
 20
-47.1
 10
72.8328
 20
-47.0912
 10
72.6673
 20
-47.065
 10
72.5056
 20
-47.0217
 10
72.3492
 20
-46.9617
 10
72.2
 20
-46.8856
 10
72.0595
 20
-46.7944
 10
71.9294
 20
-46.689
 10
71.811
 20
-46.5706
 10
71.7056
 20
-46.4405
 10
71.6144
 20
-46.3
 10
71.5383
 20
-46.1508
 10
71.4783
 20
-45.9944
 10
71.435
 20
-45.8327
 10
71.4088
 20
-45.6672
  0
LWPOLYLINE
100
AcDbEntity
  8
0
100
AcDbPolyline
 90
60
 70
1
 10
71.4
 20
45.5
 10
71.4088
 20
45.6672
 10
71.435
 20
45.8327
 10
71.4783
 20
45.9944
 10
71.5383
 20
46.1508
 10
71.6144
 20
46.3
 10
71.7056
 20
46.4405
 10
71.811
 20
46.5706
 10
71.9294
 20
46.689
 10
72.0595
 20
46.7944
 10
72.2
 20
46.8856
 10
72.3492
 20
46.9617
 10
72.5056
 20
47.0217
 10
72.6673
 20
47.065
 10
72.8328
 20
47.0912
 10
73
 20
47.1
 10
73.1672
 20
47.0912
 10
73.3327
 20
47.065
 10
73.4944
 20
47.0217
 10
73.6508
 20
46.9617
 10
73.8
 20
46.8856
 10
73.9405
 20
46.7944
 10
74.0706
 20
46.689
 10
74.189
 20
46.5706
 10
74.2944
 20
46.4405
 10
74.3856
 20
46.3
 10
74.4617
 20
46.1508
 10
74.5217
 20
45.9944
 10
74.565
 20
45.8327
 10
74.5912
 20
45.6672
 10
74.6
 20
45.5
 10
74.5912
 20
45.3328
 10
74.565
 20
45.1673
 10
74.5217
 20
45.0056
 10
74.4617
 20
44.8492
 10
74.3856
 20
44.7
 10
74.2944
 20
44.5595
 10
74.189
 20
44.4294
 10
74.0706
 20
44.311
 10
73.9405
 20
44.2056
 10
73.8
 20
44.1144
 10
73.6508
 20
44.0383
 10
73.4944
 20
43.9783
 10
73.3327
 20
43.935
 10
73.1672
 20
43.9088
 10
73
 20
43.9
 10
72.8328
 20
43.9088
 10
72.6673
 20
43.935
 10
72.5056
 20
43.9783
 10
72.3492
 20
44.0383
 10
72.2
 20
44.1144
 10
72.0595
 20
44.2056
 10
71.9294
 20
44.311
 10
71.811
 20
44.4294
 10
71.7056
 20
44.5595
 10
71.6144
 20
44.7
 10
71.5383
 20
44.8492
 10
71.4783
 20
45.0056
 10
71.435
 20
45.1673
 10
71.4088
 20
45.3328
  0
ENDSEC
  0
EOF
